<svg xmlns="http://www.w3.org/2000/svg" xmlns:xlink="http://www.w3.org/1999/xlink" width="300" zoomAndPan="magnify" viewBox="0 0 224.87999 231" height="308" preserveAspectRatio="xMidYMid meet" version="1.0"><defs><clipPath id="961759ab33"><path d="M 23 28 L 224.761719 28 L 224.761719 230.1875 L 23 230.1875 Z M 23 28 " clip-rule="nonzero"/></clipPath><clipPath id="86ef5c328e"><path d="M 0 0.0625 L 192 0.0625 L 192 193 L 0 193 Z M 0 0.0625 " clip-rule="nonzero"/></clipPath></defs><g clip-path="url(#961759ab33)"><path fill="#ffd600" d="M 124.140625 230.164062 C 68.605469 230.164062 23.425781 184.980469 23.425781 129.445312 C 23.425781 73.910156 68.605469 28.726562 124.140625 28.726562 C 179.675781 28.726562 224.859375 73.910156 224.859375 129.445312 C 224.859375 184.980469 179.675781 230.164062 124.140625 230.164062 Z M 124.140625 230.164062 C 68.605469 230.164062 23.425781 184.980469 23.425781 129.445312 C 23.425781 73.910156 68.605469 28.726562 124.140625 28.726562 C 179.675781 28.726562 224.859375 73.910156 224.859375 129.445312 C 224.859375 184.980469 179.675781 230.164062 124.140625 230.164062 Z M 124.140625 230.164062 C 68.605469 230.164062 23.425781 184.980469 23.425781 129.445312 C 23.425781 73.910156 68.605469 28.726562 124.140625 28.726562 C 179.675781 28.726562 224.859375 73.910156 224.859375 129.445312 C 224.859375 184.980469 179.675781 230.164062 124.140625 230.164062 Z M 124.140625 230.164062 " fill-opacity="1" fill-rule="nonzero"/></g><g clip-path="url(#86ef5c328e)"><path fill="#000000" d="M 186.136719 63.058594 C 186.796875 64.859375 187.40625 66.675781 187.957031 68.511719 L 106.148438 191.847656 C 104.246094 192.054688 102.332031 192.199219 100.417969 192.292969 Z M 120.148438 189.28125 C 122.429688 188.6875 124.695312 188.011719 126.929688 187.25 L 191.804688 89.445312 C 191.632812 87.085938 191.378906 84.738281 191.039062 82.402344 Z M 144.566406 179.207031 C 147.941406 177.230469 151.210938 175.042969 154.351562 172.644531 L 189.015625 120.386719 C 190.003906 116.5625 190.746094 112.699219 191.25 108.820312 Z M 53.613281 182.648438 C 54.992188 183.324219 56.378906 183.964844 57.773438 184.570312 L 162.4375 26.773438 C 161.335938 25.722656 160.207031 24.695312 159.046875 23.6875 Z M 67.660156 188.203125 C 69.183594 188.671875 70.710938 189.097656 72.246094 189.484375 L 172.59375 38.199219 C 171.640625 36.933594 170.652344 35.691406 169.628906 34.472656 Z M 83.15625 191.578125 C 84.847656 191.800781 86.542969 191.976562 88.242188 192.109375 L 181.234375 51.910156 C 180.449219 50.398438 179.628906 48.90625 178.765625 47.433594 Z M 40.863281 175.132812 C 41.480469 175.566406 42.105469 175.992188 42.734375 176.410156 C 43.367188 176.828125 44 177.234375 44.636719 177.636719 L 150.941406 17.371094 C 150.324219 16.9375 149.699219 16.511719 149.070312 16.09375 C 148.4375 15.675781 147.800781 15.269531 147.164062 14.867188 Z M 29.367188 165.730469 C 30.46875 166.78125 31.597656 167.808594 32.757812 168.816406 L 138.191406 9.855469 C 136.8125 9.179688 135.425781 8.539062 134.03125 7.933594 Z M 19.210938 154.304688 C 20.164062 155.570312 21.152344 156.8125 22.175781 158.03125 L 124.140625 4.300781 C 122.621094 3.832031 121.089844 3.40625 119.554688 3.019531 Z M 10.570312 140.59375 C 11.351562 142.105469 12.175781 143.597656 13.039062 145.070312 L 108.648438 0.925781 C 106.953125 0.703125 105.257812 0.527344 103.5625 0.394531 Z M 3.847656 123.992188 C 4.398438 125.828125 5.007812 127.644531 5.667969 129.445312 L 91.386719 0.210938 C 89.46875 0.304688 87.558594 0.449219 85.65625 0.65625 Z M 0 103.058594 C 0.171875 105.414062 0.425781 107.765625 0.765625 110.097656 L 71.65625 3.222656 C 69.371094 3.816406 67.109375 4.492188 64.871094 5.253906 Z M 2.789062 72.117188 C 1.800781 75.941406 1.058594 79.804688 0.550781 83.683594 L 47.238281 13.296875 C 43.859375 15.273438 40.589844 17.460938 37.449219 19.859375 Z M 2.789062 72.117188 " fill-opacity="1" fill-rule="nonzero"/></g></svg>