<svg xmlns="http://www.w3.org/2000/svg" xmlns:xlink="http://www.w3.org/1999/xlink" width="302" zoomAndPan="magnify" viewBox="0 0 226.5 231" height="308" preserveAspectRatio="xMidYMid meet" version="1.0"><defs><clipPath id="19122ae68d"><path d="M 148 0.253906 L 155 0.253906 L 155 6 L 148 6 Z M 148 0.253906 " clip-rule="nonzero"/></clipPath><clipPath id="7481c687a2"><path d="M 122.460938 224.128906 L 128.398438 224.128906 L 128.398438 229.996094 L 122.460938 229.996094 Z M 122.460938 224.128906 " clip-rule="nonzero"/></clipPath><clipPath id="8269d27629"><path d="M 219.3125 149.539062 L 225.253906 149.539062 L 225.253906 155.476562 L 219.3125 155.476562 Z M 219.3125 149.539062 " clip-rule="nonzero"/></clipPath></defs><path fill="#8f9295" d="M 106.597656 63.136719 L 91.265625 63.136719 L 83.601562 76.414062 L 91.265625 89.691406 L 106.597656 89.691406 L 114.261719 76.414062 Z M 105.363281 65.273438 L 111.796875 76.414062 L 105.363281 87.558594 L 92.5 87.558594 L 86.066406 76.414062 L 92.5 65.273438 L 105.363281 65.273438 " fill-opacity="1" fill-rule="nonzero"/><path fill="#b6b6b8" d="M 106.597656 93.582031 L 91.265625 93.582031 L 83.597656 106.859375 L 91.265625 120.136719 L 106.597656 120.136719 L 114.261719 106.859375 Z M 105.363281 95.71875 L 111.796875 106.859375 L 105.363281 118 L 92.5 118 L 86.066406 106.859375 L 92.5 95.71875 L 105.363281 95.71875 " fill-opacity="1" fill-rule="nonzero"/><path fill="#e6e6e6" d="M 80.230469 108.804688 L 64.898438 108.804688 L 57.234375 122.082031 L 64.898438 135.359375 L 80.230469 135.359375 L 87.898438 122.082031 Z M 79 110.941406 L 85.429688 122.082031 L 79 133.222656 L 66.132812 133.222656 L 59.699219 122.082031 L 66.132812 110.941406 L 79 110.941406 " fill-opacity="1" fill-rule="nonzero"/><path fill="#8f9295" d="M 106.597656 124.027344 L 91.265625 124.027344 L 83.601562 137.304688 L 91.265625 150.582031 L 106.597656 150.582031 L 114.261719 137.304688 Z M 105.363281 126.164062 L 111.796875 137.304688 L 105.363281 148.445312 L 92.5 148.445312 L 86.066406 137.304688 L 92.5 126.164062 L 105.363281 126.164062 " fill-opacity="1" fill-rule="nonzero"/><path fill="#b6b6b8" d="M 80.230469 139.25 L 64.898438 139.25 L 57.234375 152.527344 L 64.898438 165.804688 L 80.230469 165.804688 L 87.898438 152.527344 Z M 79 141.386719 L 85.429688 152.527344 L 79 163.667969 L 66.132812 163.667969 L 59.699219 152.527344 L 66.132812 141.386719 L 79 141.386719 " fill-opacity="1" fill-rule="nonzero"/><path fill="#8f9295" d="M 106.597656 154.46875 L 91.265625 154.46875 L 83.601562 167.75 L 91.265625 181.027344 L 106.597656 181.027344 L 114.261719 167.75 Z M 105.363281 156.605469 L 111.796875 167.75 L 105.363281 178.890625 L 92.5 178.890625 L 86.066406 167.75 L 92.5 156.605469 L 105.363281 156.605469 " fill-opacity="1" fill-rule="nonzero"/><path fill="#e6e6e6" d="M 132.964844 17.46875 L 117.632812 17.46875 L 109.96875 30.75 L 117.632812 44.023438 L 132.964844 44.023438 L 140.628906 30.75 Z M 131.730469 19.605469 L 138.164062 30.75 L 131.730469 41.890625 L 118.863281 41.890625 L 112.433594 30.75 L 118.863281 19.605469 L 131.730469 19.605469 " fill-opacity="1" fill-rule="nonzero"/><path fill="#8f9295" d="M 159.328125 32.691406 L 143.996094 32.691406 L 136.332031 45.96875 L 144 59.25 L 159.328125 59.25 L 166.996094 45.96875 Z M 158.097656 34.828125 L 164.527344 45.96875 L 158.09375 57.113281 L 145.230469 57.113281 L 138.796875 45.96875 L 145.230469 34.828125 L 158.097656 34.828125 " fill-opacity="1" fill-rule="nonzero"/><path fill="#b6b6b8" d="M 132.964844 47.914062 L 117.632812 47.914062 L 109.96875 61.191406 L 117.632812 74.46875 L 132.964844 74.46875 L 140.628906 61.191406 Z M 131.730469 50.050781 L 138.164062 61.191406 L 131.730469 72.332031 L 118.863281 72.332031 L 112.433594 61.191406 L 118.863281 50.050781 L 131.730469 50.050781 " fill-opacity="1" fill-rule="nonzero"/><path fill="#8f9295" d="M 132.964844 78.359375 L 117.632812 78.359375 L 109.96875 91.636719 L 117.632812 104.914062 L 132.964844 104.914062 L 140.628906 91.636719 Z M 131.730469 80.496094 L 138.164062 91.636719 L 131.730469 102.777344 L 118.863281 102.777344 L 112.433594 91.636719 L 118.863281 80.496094 L 131.730469 80.496094 " fill-opacity="1" fill-rule="nonzero"/><path fill="#8f9295" d="M 159.328125 93.582031 L 144 93.582031 L 136.332031 106.859375 L 144 120.136719 L 159.328125 120.136719 L 166.996094 106.859375 Z M 158.09375 95.71875 L 164.527344 106.859375 L 158.09375 118 L 145.230469 118 L 138.796875 106.859375 L 145.230469 95.71875 L 158.09375 95.71875 " fill-opacity="1" fill-rule="nonzero"/><path fill="#e6e6e6" d="M 132.964844 108.804688 L 117.632812 108.804688 L 109.96875 122.082031 L 117.632812 135.359375 L 132.964844 135.359375 L 140.628906 122.082031 Z M 131.730469 110.941406 L 138.164062 122.082031 L 131.730469 133.222656 L 118.863281 133.222656 L 112.433594 122.082031 L 118.863281 110.941406 L 131.730469 110.941406 " fill-opacity="1" fill-rule="nonzero"/><path fill="#b6b6b8" d="M 159.328125 124.027344 L 143.996094 124.027344 L 136.332031 137.304688 L 144 150.582031 L 159.328125 150.582031 L 166.996094 137.304688 Z M 158.097656 126.164062 L 164.527344 137.304688 L 158.09375 148.445312 L 145.230469 148.445312 L 138.796875 137.304688 L 145.230469 126.164062 L 158.097656 126.164062 " fill-opacity="1" fill-rule="nonzero"/><path fill="#8f9295" d="M 132.964844 139.25 L 117.632812 139.25 L 109.96875 152.527344 L 117.632812 165.804688 L 132.964844 165.804688 L 140.628906 152.527344 Z M 131.730469 141.386719 L 138.164062 152.527344 L 131.730469 163.667969 L 118.863281 163.667969 L 112.433594 152.527344 L 118.863281 141.386719 L 131.730469 141.386719 " fill-opacity="1" fill-rule="nonzero"/><path fill="#e6e6e6" d="M 132.964844 169.695312 L 117.632812 169.695312 L 109.96875 182.96875 L 117.632812 196.25 L 132.964844 196.25 L 140.628906 182.96875 Z M 131.730469 171.828125 L 138.164062 182.96875 L 131.730469 194.113281 L 118.863281 194.113281 L 112.433594 182.96875 L 118.863281 171.828125 L 131.730469 171.828125 " fill-opacity="1" fill-rule="nonzero"/><path fill="#8f9295" d="M 197.277344 47.039062 L 165.730469 47.039062 L 165.730469 44.902344 L 197.277344 44.902344 L 197.277344 47.039062 " fill-opacity="1" fill-rule="nonzero"/><path fill="#8f9295" d="M 197.136719 48.78125 C 198.6875 48.78125 199.945312 47.523438 199.945312 45.96875 C 199.945312 44.417969 198.6875 43.160156 197.136719 43.160156 C 195.585938 43.160156 194.324219 44.417969 194.324219 45.96875 C 194.324219 47.523438 195.585938 48.78125 197.136719 48.78125 " fill-opacity="1" fill-rule="nonzero"/><path fill="#8f9295" d="M 197.277344 108.140625 L 165.730469 108.140625 L 165.730469 106.003906 L 197.277344 106.003906 L 197.277344 108.140625 " fill-opacity="1" fill-rule="nonzero"/><path fill="#8f9295" d="M 197.136719 109.882812 C 198.6875 109.882812 199.945312 108.625 199.945312 107.074219 C 199.945312 105.519531 198.6875 104.261719 197.136719 104.261719 C 195.585938 104.261719 194.324219 105.519531 194.324219 107.074219 C 194.324219 108.625 195.585938 109.882812 197.136719 109.882812 " fill-opacity="1" fill-rule="nonzero"/><path fill="#8f9295" d="M 152.730469 34.578125 L 150.59375 34.578125 L 150.59375 3.03125 L 152.730469 3.03125 L 152.730469 34.578125 " fill-opacity="1" fill-rule="nonzero"/><g clip-path="url(#19122ae68d)"><path fill="#8f9295" d="M 154.472656 3.171875 C 154.472656 1.621094 153.214844 0.363281 151.664062 0.363281 C 150.109375 0.363281 148.851562 1.621094 148.851562 3.171875 C 148.851562 4.726562 150.109375 5.984375 151.664062 5.984375 C 153.214844 5.984375 154.472656 4.726562 154.472656 3.171875 " fill-opacity="1" fill-rule="nonzero"/></g><path fill="#e6e6e6" d="M 126.367188 227.375 L 124.230469 227.375 L 124.230469 195.828125 L 126.367188 195.828125 L 126.367188 227.375 " fill-opacity="1" fill-rule="nonzero"/><g clip-path="url(#7481c687a2)"><path fill="#e6e6e6" d="M 122.488281 227.234375 C 122.488281 228.785156 123.746094 230.042969 125.296875 230.042969 C 126.851562 230.042969 128.109375 228.785156 128.109375 227.234375 C 128.109375 225.679688 126.851562 224.421875 125.296875 224.421875 C 123.746094 224.421875 122.488281 225.679688 122.488281 227.234375 " fill-opacity="1" fill-rule="nonzero"/></g><path fill="#8f9295" d="M 222.621094 153.59375 L 138.796875 153.59375 L 138.796875 151.457031 L 222.621094 151.457031 L 222.621094 153.59375 " fill-opacity="1" fill-rule="nonzero"/><g clip-path="url(#8269d27629)"><path fill="#8f9295" d="M 222.480469 155.335938 C 224.03125 155.335938 225.292969 154.078125 225.292969 152.527344 C 225.292969 150.972656 224.03125 149.714844 222.480469 149.714844 C 220.929688 149.714844 219.671875 150.972656 219.671875 152.527344 C 219.671875 154.078125 220.929688 155.335938 222.480469 155.335938 " fill-opacity="1" fill-rule="nonzero"/></g><path fill="#e6e6e6" d="M 58.023438 123.148438 L 26.476562 123.148438 L 26.476562 121.015625 L 58.023438 121.015625 L 58.023438 123.148438 " fill-opacity="1" fill-rule="nonzero"/><path fill="#e6e6e6" d="M 26.617188 124.890625 C 25.066406 124.890625 23.808594 123.632812 23.808594 122.082031 C 23.808594 120.527344 25.066406 119.269531 26.617188 119.269531 C 28.167969 119.269531 29.429688 120.527344 29.429688 122.082031 C 29.429688 123.632812 28.167969 124.890625 26.617188 124.890625 " fill-opacity="1" fill-rule="nonzero"/><path fill="#8f9295" d="M 85.132812 168.816406 L 53.585938 168.816406 L 53.585938 166.679688 L 85.132812 166.679688 L 85.132812 168.816406 " fill-opacity="1" fill-rule="nonzero"/><path fill="#8f9295" d="M 53.726562 170.558594 C 52.175781 170.558594 50.917969 169.300781 50.917969 167.75 C 50.917969 166.195312 52.175781 164.9375 53.726562 164.9375 C 55.28125 164.9375 56.539062 166.195312 56.539062 167.75 C 56.539062 169.300781 55.28125 170.558594 53.726562 170.558594 " fill-opacity="1" fill-rule="nonzero"/><path fill="#8f9295" d="M 85.53125 77.480469 L 2.671875 77.480469 L 2.671875 75.347656 L 85.53125 75.347656 L 85.53125 77.480469 " fill-opacity="1" fill-rule="nonzero"/><path fill="#8f9295" d="M 2.8125 79.226562 C 1.257812 79.226562 0 77.964844 0 76.414062 C 0 74.863281 1.257812 73.601562 2.8125 73.601562 C 4.363281 73.601562 5.621094 74.863281 5.621094 76.414062 C 5.621094 77.964844 4.363281 79.226562 2.8125 79.226562 " fill-opacity="1" fill-rule="nonzero"/><path fill="#e6e6e6" d="M 111.707031 31.816406 L 95.433594 31.816406 L 95.433594 29.679688 L 111.707031 29.679688 L 111.707031 31.816406 " fill-opacity="1" fill-rule="nonzero"/><path fill="#e6e6e6" d="M 95.574219 33.558594 C 94.023438 33.558594 92.761719 32.300781 92.761719 30.75 C 92.761719 29.195312 94.023438 27.9375 95.574219 27.9375 C 97.125 27.9375 98.386719 29.195312 98.386719 30.75 C 98.386719 32.300781 97.125 33.558594 95.574219 33.558594 " fill-opacity="1" fill-rule="nonzero"/><path fill="#8f9295" d="M 180.753906 57.664062 L 178.328125 53.464844 L 173.476562 53.464844 L 171.050781 57.664062 L 173.476562 61.863281 L 178.328125 61.863281 Z M 180.417969 57.664062 L 178.160156 61.574219 L 173.644531 61.574219 L 171.386719 57.664062 L 173.644531 53.75 L 178.160156 53.75 L 180.417969 57.664062 " fill-opacity="1" fill-rule="nonzero"/><path fill="#8f9295" d="M 209.492188 127.992188 L 204.722656 119.726562 L 195.171875 119.726562 L 190.402344 127.992188 L 195.171875 136.261719 L 204.722656 136.261719 Z M 208.835938 127.992188 L 204.390625 135.691406 L 195.503906 135.691406 L 191.058594 127.992188 L 195.503906 120.296875 L 204.390625 120.296875 L 208.835938 127.992188 " fill-opacity="1" fill-rule="nonzero"/><path fill="#8f9295" d="M 181.476562 139.25 L 179.421875 135.691406 L 175.3125 135.691406 L 173.257812 139.25 L 175.3125 142.808594 L 179.421875 142.808594 Z M 181.191406 139.25 L 179.277344 142.5625 L 175.453125 142.5625 L 173.542969 139.25 L 175.453125 135.9375 L 179.277344 135.9375 L 181.191406 139.25 " fill-opacity="1" fill-rule="nonzero"/><path fill="#e6e6e6" d="M 184.761719 83.339844 L 188.769531 90.285156 L 184.761719 97.230469 L 176.742188 97.230469 L 172.734375 90.285156 L 176.742188 83.339844 L 184.761719 83.339844 " fill-opacity="1" fill-rule="nonzero"/><path fill="#b6b6b8" d="M 153.28125 75.886719 L 155.5625 79.839844 L 153.28125 83.789062 L 148.71875 83.789062 L 146.4375 79.839844 L 148.71875 75.886719 L 153.28125 75.886719 " fill-opacity="1" fill-rule="nonzero"/><path fill="#b6b6b8" d="M 166.679688 69.058594 L 167.820312 71.035156 L 166.679688 73.007812 L 164.398438 73.007812 L 163.257812 71.035156 L 164.398438 69.058594 L 166.679688 69.058594 " fill-opacity="1" fill-rule="nonzero"/><path fill="#b6b6b8" d="M 76.441406 180.996094 L 77.582031 182.972656 L 76.441406 184.945312 L 74.160156 184.945312 L 73.019531 182.972656 L 74.160156 180.996094 L 76.441406 180.996094 " fill-opacity="1" fill-rule="nonzero"/><path fill="#8f9295" d="M 178.699219 123.148438 L 181.496094 127.992188 L 178.699219 132.835938 L 173.105469 132.835938 L 170.308594 127.992188 L 173.105469 123.148438 L 178.699219 123.148438 " fill-opacity="1" fill-rule="nonzero"/><path fill="#8f9295" d="M 84.847656 91.359375 L 80.074219 83.09375 L 70.527344 83.09375 L 65.753906 91.359375 L 70.527344 99.628906 L 80.074219 99.628906 Z M 84.1875 91.359375 L 79.742188 99.058594 L 70.855469 99.058594 L 66.410156 91.359375 L 70.855469 83.664062 L 79.742188 83.664062 L 84.1875 91.359375 " fill-opacity="1" fill-rule="nonzero"/><path fill="#8f9295" d="M 56.828125 102.613281 L 54.773438 99.058594 L 50.664062 99.058594 L 48.609375 102.613281 L 50.664062 106.171875 L 54.773438 106.171875 Z M 56.542969 102.613281 L 54.632812 105.925781 L 50.804688 105.925781 L 48.894531 102.613281 L 50.804688 99.300781 L 54.632812 99.300781 L 56.542969 102.613281 " fill-opacity="1" fill-rule="nonzero"/><path fill="#8f9295" d="M 37.820312 86.515625 L 40.617188 91.359375 L 37.820312 96.203125 L 32.226562 96.203125 L 29.429688 91.359375 L 32.226562 86.515625 L 37.820312 86.515625 " fill-opacity="1" fill-rule="nonzero"/><path fill="#8f9295" d="M 54.183594 145.085938 L 52.128906 141.527344 L 48.019531 141.527344 L 45.96875 145.085938 L 48.019531 148.644531 L 52.128906 148.644531 Z M 53.898438 145.085938 L 51.988281 148.398438 L 48.164062 148.398438 L 46.25 145.085938 L 48.164062 141.773438 L 51.988281 141.773438 L 53.898438 145.085938 " fill-opacity="1" fill-rule="nonzero"/><path fill="#b6b6b8" d="M 51.40625 128.988281 L 54.203125 133.832031 L 51.40625 138.675781 L 45.8125 138.675781 L 43.015625 133.832031 L 45.8125 128.988281 L 51.40625 128.988281 " fill-opacity="1" fill-rule="nonzero"/><path fill="#8f9295" d="M 157.757812 83.75 L 155.332031 79.550781 L 150.480469 79.550781 L 148.054688 83.75 L 150.480469 87.949219 L 155.332031 87.949219 Z M 157.421875 83.75 L 155.164062 87.660156 L 150.648438 87.660156 L 148.390625 83.75 L 150.648438 79.839844 L 155.164062 79.839844 L 157.421875 83.75 " fill-opacity="1" fill-rule="nonzero"/><path fill="#8f9295" d="M 78.417969 31.097656 L 75.992188 26.898438 L 71.140625 26.898438 L 68.714844 31.097656 L 71.140625 35.296875 L 75.992188 35.296875 Z M 78.082031 31.097656 L 75.824219 35.007812 L 71.308594 35.007812 L 69.050781 31.097656 L 71.308594 27.1875 L 75.824219 27.1875 L 78.082031 31.097656 " fill-opacity="1" fill-rule="nonzero"/><path fill="#b6b6b8" d="M 69.261719 53.820312 L 73.273438 60.765625 L 69.261719 67.710938 L 61.242188 67.710938 L 57.234375 60.765625 L 61.242188 53.820312 L 69.261719 53.820312 " fill-opacity="1" fill-rule="nonzero"/><path fill="#b6b6b8" d="M 99.570312 46.953125 L 101.847656 50.902344 L 99.570312 54.855469 L 95.007812 54.855469 L 92.722656 50.902344 L 95.007812 46.953125 L 99.570312 46.953125 " fill-opacity="1" fill-rule="nonzero"/><path fill="#b6b6b8" d="M 87.578125 45.9375 L 88.714844 47.914062 L 87.578125 49.890625 L 85.296875 49.890625 L 84.15625 47.914062 L 85.296875 45.9375 L 87.578125 45.9375 " fill-opacity="1" fill-rule="nonzero"/><path fill="#8f9295" d="M 114.816406 47.039062 L 112.390625 42.835938 L 107.542969 42.835938 L 105.117188 47.039062 L 107.542969 51.238281 L 112.390625 51.238281 Z M 114.480469 47.039062 L 112.222656 50.949219 L 107.707031 50.949219 L 105.453125 47.039062 L 107.707031 43.128906 L 112.222656 43.128906 L 114.480469 47.039062 " fill-opacity="1" fill-rule="nonzero"/><path fill="#b6b6b8" d="M 155.925781 160.164062 L 152.320312 166.40625 L 155.925781 172.652344 L 163.132812 172.652344 L 166.734375 166.40625 L 163.132812 160.164062 L 155.925781 160.164062 " fill-opacity="1" fill-rule="nonzero"/><path fill="#8f9295" d="M 148.851562 172.585938 L 152.683594 179.222656 L 160.347656 179.222656 L 164.175781 172.585938 L 160.347656 165.949219 L 152.683594 165.949219 Z M 149.382812 172.585938 L 152.949219 166.40625 L 160.082031 166.40625 L 163.648438 172.585938 L 160.082031 178.761719 L 152.949219 178.761719 L 149.382812 172.585938 " fill-opacity="1" fill-rule="nonzero"/></svg>